<svg xmlns="http://www.w3.org/2000/svg" viewBox="0 0 1920 1080">
    <g transform="
          rotate(137 960 540)
          translate(-906.0434213944011 -509.6494245343506)
          scale(1.9437952306191677)
        ">
        <rect width="1920" height="1080" fill="rgb(0, 184, 118)"/>
        <g transform="translate(0, 0)">
            <path fill="rgb(0, 191, 125)" fill-opacity="1"
                  d="M0,151.261L106.667,150.032C213.333,148.803,426.667,146.345,640,145.963C853.333,145.582,1066.667,147.279,1280,147.469C1493.333,147.66,1706.667,146.345,1813.333,145.688L1920,145.03L1920,1080L1813.333,1080C1706.667,1080,1493.333,1080,1280,1080C1066.667,1080,853.333,1080,640,1080C426.667,1080,213.333,1080,106.667,1080L0,1080Z"/>
        </g>
        <g transform="translate(0, 154.28571428571428)">
            <path fill="rgb(1, 197, 131)" fill-opacity="1"
                  d="M0,50.517L106.667,63.608C213.333,76.7,426.667,102.883,640,94.858C853.333,86.834,1066.667,44.601,1280,42.206C1493.333,39.811,1706.667,77.253,1813.333,95.975L1920,114.696L1920,925.714L1813.333,925.714C1706.667,925.714,1493.333,925.714,1280,925.714C1066.667,925.714,853.333,925.714,640,925.714C426.667,925.714,213.333,925.714,106.667,925.714L0,925.714Z"/>
        </g>
        <g transform="translate(0, 308.57142857142856)">
            <path fill="rgb(1, 204, 138)" fill-opacity="1"
                  d="M0,58.326L106.667,50.329C213.333,42.332,426.667,26.338,640,34.594C853.333,42.85,1066.667,75.355,1280,81.216C1493.333,87.078,1706.667,66.294,1813.333,55.903L1920,45.511L1920,771.429L1813.333,771.429C1706.667,771.429,1493.333,771.429,1280,771.429C1066.667,771.429,853.333,771.429,640,771.429C426.667,771.429,213.333,771.429,106.667,771.429L0,771.429Z"/>
        </g>
        <g transform="translate(0, 462.85714285714283)">
            <path fill="rgb(1, 210, 144)" fill-opacity="1"
                  d="M0,45.445L106.667,60.535C213.333,75.625,426.667,105.805,640,122.013C853.333,138.222,1066.667,140.459,1280,122.004C1493.333,103.548,1706.667,64.398,1813.333,44.824L1920,25.249L1920,617.143L1813.333,617.143C1706.667,617.143,1493.333,617.143,1280,617.143C1066.667,617.143,853.333,617.143,640,617.143C426.667,617.143,213.333,617.143,106.667,617.143L0,617.143Z"/>
        </g>
        <g transform="translate(0, 617.1428571428571)">
            <path fill="rgb(1, 217, 151)" fill-opacity="1"
                  d="M0,45.909L106.667,57.56C213.333,69.211,426.667,92.514,640,108.999C853.333,125.483,1066.667,135.15,1280,128.792C1493.333,122.434,1706.667,100.051,1813.333,88.859L1920,77.668L1920,462.857L1813.333,462.857C1706.667,462.857,1493.333,462.857,1280,462.857C1066.667,462.857,853.333,462.857,640,462.857C426.667,462.857,213.333,462.857,106.667,462.857L0,462.857Z"/>
        </g>
        <g transform="translate(0, 771.4285714285714)">
            <path fill="rgb(2, 223, 157)" fill-opacity="1"
                  d="M0,8.174L106.667,7.002C213.333,5.831,426.667,3.489,640,17.605C853.333,31.722,1066.667,62.296,1280,71.907C1493.333,81.517,1706.667,70.163,1813.333,64.486L1920,58.809L1920,308.571L1813.333,308.571C1706.667,308.571,1493.333,308.571,1280,308.571C1066.667,308.571,853.333,308.571,640,308.571C426.667,308.571,213.333,308.571,106.667,308.571L0,308.571Z"/>
        </g>
        <g transform="translate(0, 925.7142857142857)">
            <path fill="rgb(2, 230, 164)" fill-opacity="1"
                  d="M0,22.064L106.667,24.842C213.333,27.62,426.667,33.177,640,37.118C853.333,41.059,1066.667,43.385,1280,57.024C1493.333,70.663,1706.667,95.615,1813.333,108.091L1920,120.567L1920,154.286L1813.333,154.286C1706.667,154.286,1493.333,154.286,1280,154.286C1066.667,154.286,853.333,154.286,640,154.286C426.667,154.286,213.333,154.286,106.667,154.286L0,154.286Z"/>
        </g>
    </g>
</svg>