<svg xmlns="http://www.w3.org/2000/svg" viewBox="0 0 80 88" width="80" height="88">
    <rect style="fill:#046745;width:100%;height:100%;"/>
    <path style="fill:#089f6c;opacity:0.7;" d="M22,21.91V26H20.41A18.26,18.26,0,0,0,2.07,42.37,18,18,0,0,0,20,62h2v4.09A22,22,0,0,1,40,78.82,22,22,0,0,1,58,66.09V62h1.59A18.26,18.26,0,0,0,77.93,45.63,18,18,0,0,0,60,26H58V21.91A22,22,0,0,1,40,9.18,22,22,0,0,1,22,21.91ZM54,58v4.7a25.91,25.91,0,0,0-14,8.69A25.91,25.91,0,0,0,26,62.7V58H20.37A14.23,14.23,0,0,1,6.09,45.59,14,14,0,0,1,20,30h6V25.3a25.91,25.91,0,0,0,14-8.69A25.91,25.91,0,0,0,54,25.3V30h5.63A14.23,14.23,0,0,1,73.91,42.41,14,14,0,0,1,60,58ZM42,88A18,18,0,0,1,60,70h2V65.91A22,22,0,0,0,80,53.18v7.43A25.91,25.91,0,0,1,66,69.3V74H60A14,14,0,0,0,46,88Zm-4,0A18,18,0,0,0,20,70H18V65.91A22,22,0,0,1,0,53.18v7.43A26,26,0,0,0,14,69.3V74h6A14,14,0,0,1,34,88ZM42,0A18,18,0,0,0,60,18h2v4.09A22,22,0,0,1,80,34.82V27.39A25.91,25.91,0,0,0,66,18.7V14H60A14,14,0,0,1,46,0ZM0,34.82A22,22,0,0,1,18,22.09V18h2A18,18,0,0,0,38,0H34A14,14,0,0,1,20,14H14v4.7A26,26,0,0,0,0,27.39v7.43Z"/>
</svg>
