<svg xmlns="http://www.w3.org/2000/svg" viewBox="0 0 1920 1080">
    <g transform="
          rotate(244 960 540)
          translate(-994.7781399347596 -559.5627037133022)
          scale(2.036227229098708)
        ">
        <rect width="1920" height="1080" fill="rgb(4, 103, 69)"/>
        <g transform="translate(0, 0)">
            <path fill="rgb(4, 119, 79)" fill-opacity="1"
                  d="M0,211.766L22.857,210.045C45.714,208.324,91.429,204.882,137.143,204.349C182.857,203.815,228.571,206.19,274.286,206.457C320,206.724,365.714,204.883,411.429,181.91C457.143,158.936,502.857,114.83,548.571,111.105C594.286,107.38,640,144.036,685.714,132.802C731.429,121.567,777.143,62.441,822.857,59.088C868.571,55.735,914.286,108.155,960,121.211C1005.714,134.268,1051.429,107.962,1097.143,83.613C1142.857,59.265,1188.571,36.873,1234.286,48.431C1280,59.99,1325.714,105.497,1371.429,113.703C1417.143,121.909,1462.857,92.812,1508.571,78.248C1554.286,63.685,1600,63.654,1645.714,84.765C1691.429,105.875,1737.143,148.126,1782.857,170.818C1828.571,193.51,1874.286,196.643,1897.143,198.209L1920,199.776L1920,1080L1897.143,1080C1874.286,1080,1828.571,1080,1782.857,1080C1737.143,1080,1691.429,1080,1645.714,1080C1600,1080,1554.286,1080,1508.571,1080C1462.857,1080,1417.143,1080,1371.429,1080C1325.714,1080,1280,1080,1234.286,1080C1188.571,1080,1142.857,1080,1097.143,1080C1051.429,1080,1005.714,1080,960,1080C914.286,1080,868.571,1080,822.857,1080C777.143,1080,731.429,1080,685.714,1080C640,1080,594.286,1080,548.571,1080C502.857,1080,457.143,1080,411.429,1080C365.714,1080,320,1080,274.286,1080C228.571,1080,182.857,1080,137.143,1080C91.429,1080,45.714,1080,22.857,1080L0,1080Z"/>
        </g>
        <g transform="translate(0, 216)">
            <path fill="rgb(3, 134, 89)" fill-opacity="1"
                  d="M0,35.349L22.857,40.169C45.714,44.99,91.429,54.631,137.143,75.764C182.857,96.896,228.571,129.519,274.286,152.598C320,175.676,365.714,189.21,411.429,180.309C457.143,171.407,502.857,140.071,548.571,108.188C594.286,76.304,640,43.874,685.714,26.019C731.429,8.164,777.143,4.885,822.857,24.647C868.571,44.41,914.286,87.215,960,100.669C1005.714,114.124,1051.429,98.228,1097.143,81.706C1142.857,65.185,1188.571,48.037,1234.286,43.353C1280,38.669,1325.714,46.447,1371.429,51.965C1417.143,57.483,1462.857,60.739,1508.571,79.834C1554.286,98.928,1600,133.861,1645.714,157.65C1691.429,181.439,1737.143,194.085,1782.857,201.671C1828.571,209.256,1874.286,211.781,1897.143,213.044L1920,214.306L1920,864L1897.143,864C1874.286,864,1828.571,864,1782.857,864C1737.143,864,1691.429,864,1645.714,864C1600,864,1554.286,864,1508.571,864C1462.857,864,1417.143,864,1371.429,864C1325.714,864,1280,864,1234.286,864C1188.571,864,1142.857,864,1097.143,864C1051.429,864,1005.714,864,960,864C914.286,864,868.571,864,822.857,864C777.143,864,731.429,864,685.714,864C640,864,594.286,864,548.571,864C502.857,864,457.143,864,411.429,864C365.714,864,320,864,274.286,864C228.571,864,182.857,864,137.143,864C91.429,864,45.714,864,22.857,864L0,864Z"/>
        </g>
        <g transform="translate(0, 432)">
            <path fill="rgb(3, 150, 98)" fill-opacity="1"
                  d="M0,119.09L22.857,109.707C45.714,100.325,91.429,81.56,137.143,65.182C182.857,48.804,228.571,34.813,274.286,55.484C320,76.155,365.714,131.487,411.429,163.3C457.143,195.113,502.857,203.408,548.571,207.849C594.286,212.29,640,212.879,685.714,200.569C731.429,188.259,777.143,163.051,822.857,147.31C868.571,131.569,914.286,125.295,960,112.475C1005.714,99.655,1051.429,80.29,1097.143,95.586C1142.857,110.882,1188.571,160.839,1234.286,181.672C1280,202.506,1325.714,194.215,1371.429,191.858C1417.143,189.501,1462.857,193.078,1508.571,188.928C1554.286,184.778,1600,172.902,1645.714,143.273C1691.429,113.645,1737.143,66.265,1782.857,71.939C1828.571,77.613,1874.286,136.34,1897.143,165.704L1920,195.068L1920,648L1897.143,648C1874.286,648,1828.571,648,1782.857,648C1737.143,648,1691.429,648,1645.714,648C1600,648,1554.286,648,1508.571,648C1462.857,648,1417.143,648,1371.429,648C1325.714,648,1280,648,1234.286,648C1188.571,648,1142.857,648,1097.143,648C1051.429,648,1005.714,648,960,648C914.286,648,868.571,648,822.857,648C777.143,648,731.429,648,685.714,648C640,648,594.286,648,548.571,648C502.857,648,457.143,648,411.429,648C365.714,648,320,648,274.286,648C228.571,648,182.857,648,137.143,648C91.429,648,45.714,648,22.857,648L0,648Z"/>
        </g>
        <g transform="translate(0, 648)">
            <path fill="rgb(2, 165, 108)" fill-opacity="1"
                  d="M0,98.942L22.857,87.717C45.714,76.492,91.429,54.041,137.143,53.578C182.857,53.116,228.571,74.641,274.286,104.636C320,134.631,365.714,173.096,411.429,175.404C457.143,177.711,502.857,143.859,548.571,123.912C594.286,103.964,640,97.92,685.714,81.858C731.429,65.796,777.143,39.716,822.857,26.367C868.571,13.018,914.286,12.4,960,24.143C1005.714,35.885,1051.429,59.988,1097.143,92.654C1142.857,125.321,1188.571,166.55,1234.286,180.531C1280,194.511,1325.714,181.241,1371.429,151.53C1417.143,121.819,1462.857,75.666,1508.571,81.344C1554.286,87.023,1600,144.534,1645.714,153.517C1691.429,162.501,1737.143,122.957,1782.857,113.69C1828.571,104.422,1874.286,125.43,1897.143,135.934L1920,146.439L1920,432L1897.143,432C1874.286,432,1828.571,432,1782.857,432C1737.143,432,1691.429,432,1645.714,432C1600,432,1554.286,432,1508.571,432C1462.857,432,1417.143,432,1371.429,432C1325.714,432,1280,432,1234.286,432C1188.571,432,1142.857,432,1097.143,432C1051.429,432,1005.714,432,960,432C914.286,432,868.571,432,822.857,432C777.143,432,731.429,432,685.714,432C640,432,594.286,432,548.571,432C502.857,432,457.143,432,411.429,432C365.714,432,320,432,274.286,432C228.571,432,182.857,432,137.143,432C91.429,432,45.714,432,22.857,432L0,432Z"/>
        </g>
        <g transform="translate(0, 864)">
            <path fill="rgb(2, 181, 118)" fill-opacity="1"
                  d="M0,91.179L22.857,102.553C45.714,113.926,91.429,136.673,137.143,147.738C182.857,158.803,228.571,158.186,274.286,147.573C320,136.96,365.714,116.352,411.429,110.405C457.143,104.458,502.857,113.173,548.571,117.433C594.286,121.693,640,121.498,685.714,119.379C731.429,117.259,777.143,113.215,822.857,109.666C868.571,106.117,914.286,103.064,960,88.535C1005.714,74.007,1051.429,48.003,1097.143,32.475C1142.857,16.947,1188.571,11.895,1234.286,19.109C1280,26.324,1325.714,45.805,1371.429,58.053C1417.143,70.3,1462.857,75.313,1508.571,76.449C1554.286,77.585,1600,74.844,1645.714,81.247C1691.429,87.65,1737.143,103.196,1782.857,114.399C1828.571,125.601,1874.286,132.46,1897.143,135.889L1920,139.318L1920,216L1897.143,216C1874.286,216,1828.571,216,1782.857,216C1737.143,216,1691.429,216,1645.714,216C1600,216,1554.286,216,1508.571,216C1462.857,216,1417.143,216,1371.429,216C1325.714,216,1280,216,1234.286,216C1188.571,216,1142.857,216,1097.143,216C1051.429,216,1005.714,216,960,216C914.286,216,868.571,216,822.857,216C777.143,216,731.429,216,685.714,216C640,216,594.286,216,548.571,216C502.857,216,457.143,216,411.429,216C365.714,216,320,216,274.286,216C228.571,216,182.857,216,137.143,216C91.429,216,45.714,216,22.857,216L0,216Z"/>
        </g>
    </g>
</svg>