<?xml version="1.0" encoding="iso-8859-1"?>
<!-- Generator: Adobe Illustrator 19.0.0, SVG Export Plug-In . SVG Version: 6.00 Build 0)  -->
<svg version="1.1" id="Layer_1" xmlns="http://www.w3.org/2000/svg" xmlns:xlink="http://www.w3.org/1999/xlink" x="0px" y="0px"
	 viewBox="0 0 512 512" style="enable-background:new 0 0 512 512;" xml:space="preserve">
<g>
	<g>
		<path d="M460.8,0H348.16H163.84H51.2c-5.655,0-10.24,4.585-10.24,10.24v122.88c0,5.655,4.585,10.24,10.24,10.24h112.64h184.32
			H460.8c5.655,0,10.24-4.585,10.24-10.24V10.24C471.04,4.585,466.455,0,460.8,0z M153.6,122.88H61.44V20.48h92.16V122.88z
			 M337.92,122.88H174.08V20.48h163.84V122.88z M450.56,122.88H358.4V20.48h92.16V122.88z"/>
	</g>
</g>
<g>
	<g>
		<rect x="102.4" y="409.6" width="61.44" height="20.48"/>
	</g>
</g>
<g>
	<g>
		<rect x="348.16" y="409.6" width="61.44" height="20.48"/>
	</g>
</g>
<g>
	<g>
		<path d="M466.015,296.96H440.32v-61.44c0-5.655-4.585-10.24-10.24-10.24h-102.4c-5.655,0-10.24,4.585-10.24,10.24v61.44H45.985
			C20.63,296.96,0,317.63,0,343.04v35.84v102.4V512h20.48v-20.48H256h235.52V512H512v-30.72v-102.4v-35.84
			C512,317.63,491.37,296.96,466.015,296.96z M337.92,245.76h81.92v51.2h-81.92V245.76z M245.76,471.04H20.48v-81.92h225.28V471.04z
			 M491.52,471.04H266.24v-81.92h225.28V471.04z M491.52,368.64H256H20.48v-25.6c0-14.115,11.44-25.6,25.505-25.6H327.68h102.4
			h35.935c14.065,0,25.505,11.485,25.505,25.6V368.64z"/>
	</g>
</g>
<g>
</g>
<g>
</g>
<g>
</g>
<g>
</g>
<g>
</g>
<g>
</g>
<g>
</g>
<g>
</g>
<g>
</g>
<g>
</g>
<g>
</g>
<g>
</g>
<g>
</g>
<g>
</g>
<g>
</g>
</svg>
