<?xml version="1.0" encoding="iso-8859-1"?>
<!-- Generator: Adobe Illustrator 19.0.0, SVG Export Plug-In . SVG Version: 6.00 Build 0)  -->
<svg version="1.1" id="Layer_1" xmlns="http://www.w3.org/2000/svg" xmlns:xlink="http://www.w3.org/1999/xlink" x="0px" y="0px"
	 viewBox="0 0 512 512" style="enable-background:new 0 0 512 512;" xml:space="preserve">
<g>
	<g>
		<circle cx="361.739" cy="205.913" r="16.696"/>
	</g>
</g>
<g>
	<g>
		<circle cx="361.739" cy="339.478" r="16.696"/>
	</g>
</g>
<g>
	<g>
		<path d="M495.304,55.652H16.696C7.475,55.652,0,63.127,0,72.348v66.783c0,9.22,7.475,16.696,16.696,16.696h16.696v283.826
			c0,9.22,7.475,16.696,16.696,16.696h66.783c9.22,0,16.696-7.475,16.696-16.696V155.826H244.87v283.826
			c0,9.22,7.475,16.696,16.696,16.696c9.22,0,16.696-7.475,16.696-16.696v-16.696h166.957v16.696c0,9.22,7.475,16.696,16.696,16.696
			s16.696-7.475,16.696-16.696V155.826h16.696c9.22,0,16.696-7.475,16.696-16.696V72.348C512,63.127,504.525,55.652,495.304,55.652z
			 M100.174,422.957H66.783v-267.13h33.391V422.957z M445.217,389.565H278.261V289.391h166.957V389.565z M445.217,256H278.261
			V155.826h166.957V256z M478.609,122.435H116.87H50.087H33.391V89.043h445.217V122.435z"/>
	</g>
</g>
<g>
</g>
<g>
</g>
<g>
</g>
<g>
</g>
<g>
</g>
<g>
</g>
<g>
</g>
<g>
</g>
<g>
</g>
<g>
</g>
<g>
</g>
<g>
</g>
<g>
</g>
<g>
</g>
<g>
</g>
</svg>
