<?xml version="1.0" encoding="iso-8859-1"?>
<!-- Generator: Adobe Illustrator 19.0.0, SVG Export Plug-In . SVG Version: 6.00 Build 0)  -->
<svg version="1.1" id="Layer_1" xmlns="http://www.w3.org/2000/svg" xmlns:xlink="http://www.w3.org/1999/xlink" x="0px" y="0px"
	 viewBox="0 0 512.128 512.128" style="enable-background:new 0 0 512.128 512.128;" xml:space="preserve">
<g>
	<g>
		<path d="M496.128,298.736c-8.832,0-16,7.168-16,16c0,11.968-9.712,21.328-22.096,21.328H54.208
			c-12.176,0-22.096-9.744-22.096-21.712c0-8.832-7.168-16-16-16c-8.832,0-16,7.168-16,16c0,29.616,24.272,53.712,54.096,53.712
			h403.824c29.824,0,54.096-23.92,54.096-53.328C512.128,305.904,504.96,298.736,496.128,298.736z"/>
	</g>
</g>
<g>
	<g>
		<path d="M425.824,128.064H86.384c-29.472,0-54.384,24.768-54.384,54.08v25.92c0,8.832,7.168,16,16,16c8.832,0,16-7.168,16-16
			v-25.92c0-11.968,10.256-22.08,22.384-22.08h339.44c12.016,0,22.176,10.112,22.176,22.08v25.92c0,8.832,7.168,16,16,16
			c8.832,0,16-7.168,16-16v-25.92C480,152.336,455.696,128.064,425.824,128.064z"/>
	</g>
</g>
<g>
	<g>
		<path d="M56.496,192.064H39.728C17.824,192.064,0,209.6,0,231.152v88.912c0,8.832,7.168,16,16,16c8.832,0,16-7.168,16-16v-88.912
			c0-3.968,3.392-7.088,7.728-7.088h16.784c4.272,0,7.488,3.04,7.488,7.088v56.912c0,8.832,7.168,16,16,16c8.832,0,16-7.168,16-16
			v-56.912C96,209.6,78.288,192.064,56.496,192.064z"/>
	</g>
</g>
<g>
	<g>
		<path d="M472.624,192.064H456.96c-22.208,0-40.96,18.08-40.96,39.504v56.496c0,8.832,7.168,16,16,16c8.832,0,16-7.168,16-16
			v-56.496c0-3.728,4.512-7.504,8.96-7.504h15.664c4.064,0,7.376,3.36,7.376,7.504v88.496c0,8.832,7.168,16,16,16
			c8.832,0,16-7.168,16-16v-88.496C512,209.776,494.336,192.064,472.624,192.064z"/>
	</g>
</g>
<g>
	<g>
		<path d="M432,272.064H80c-8.832,0-16,7.168-16,16c0,8.832,7.168,16,16,16h352c8.832,0,16-7.168,16-16
			C448,279.232,440.832,272.064,432,272.064z"/>
	</g>
</g>
<g>
	<g>
		<path d="M48,336.064c-8.832,0-16,7.168-16,16v16c0,8.832,7.168,16,16,16c8.832,0,16-7.168,16-16v-16
			C64,343.232,56.832,336.064,48,336.064z"/>
	</g>
</g>
<g>
	<g>
		<path d="M464,336.064c-8.832,0-16,7.168-16,16v16c0,8.832,7.168,16,16,16c8.832,0,16-7.168,16-16v-16
			C480,343.232,472.832,336.064,464,336.064z"/>
	</g>
</g>
<g>
</g>
<g>
</g>
<g>
</g>
<g>
</g>
<g>
</g>
<g>
</g>
<g>
</g>
<g>
</g>
<g>
</g>
<g>
</g>
<g>
</g>
<g>
</g>
<g>
</g>
<g>
</g>
<g>
</g>
</svg>
